<?xml version="1.0" standalone="no"?>
<!DOCTYPE svg PUBLIC "-//W3C//DTD SVG 20010904//EN"
 "http://www.w3.org/TR/2001/REC-SVG-20010904/DTD/svg10.dtd">
<svg version="1.0" xmlns="http://www.w3.org/2000/svg"
 width="144.000000pt" height="144.000000pt" viewBox="0 0 144.000000 144.000000"
 preserveAspectRatio="xMidYMid meet">
<metadata>
Created by potrace 1.11, written by Peter Selinger 2001-2013
</metadata>
<g transform="translate(0.000000,144.000000) scale(0.100000,-0.100000)"
fill="#000000" stroke="none">
<path d="M427 1420 c-37 -23 -56 -50 -57 -78 0 -13 -5 -33 -11 -45 -9 -16 -9
-22 0 -25 6 -2 11 -16 11 -32 0 -22 5 -29 28 -33 27 -5 27 -7 29 -85 2 -77 1
-80 -23 -85 -13 -2 -24 -1 -24 3 0 7 -59 33 -61 27 0 -1 -3 -14 -5 -28 -5 -29
8 -38 58 -45 57 -8 78 -20 78 -48 0 -8 8 -30 19 -49 18 -33 23 -100 8 -124 -5
-8 -4 -13 3 -13 11 0 4 -13 -45 -95 -23 -38 -60 -141 -57 -157 1 -5 -2 -8 -6
-8 -12 0 -13 -55 -2 -102 6 -24 13 -63 16 -88 2 -25 7 -56 9 -70 20 -102 18
-116 -15 -143 -22 -19 -43 -27 -71 -27 -32 0 -39 -4 -39 -19 0 -21 17 -29 76
-36 22 -2 54 -7 73 -9 48 -7 69 7 64 41 -8 54 -9 213 0 213 4 0 5 5 1 11 -4 7
-8 33 -10 58 -2 25 -6 58 -10 73 -6 24 2 36 67 99 l73 71 19 -23 c131 -165
137 -169 217 -183 71 -13 230 -103 230 -131 0 -4 8 -19 19 -33 10 -15 22 -46
26 -69 14 -86 57 -31 59 76 2 74 -12 98 -60 103 -20 2 -52 22 -90 54 -82 70
-108 84 -154 86 -53 2 -66 18 -74 88 -6 48 -28 120 -38 120 -5 0 -7 4 -3 9 3
6 0 13 -7 18 -7 4 -13 22 -14 38 0 32 -10 106 -21 165 -4 19 -6 42 -4 50 4 18
-20 90 -30 90 -7 0 -19 38 -24 79 -3 23 -64 83 -76 75 -4 -2 -18 7 -33 21 -26
24 -26 26 -11 55 8 16 20 30 25 30 6 0 6 9 0 25 -5 14 -7 25 -4 25 11 0 -69
85 -85 91 -9 3 -29 -2 -44 -11z"/>
</g>
</svg>
